<svg width="46" height="46" viewBox="0 0 46 46" fill="none" xmlns="http://www.w3.org/2000/svg">
<g clip-path="url(#clip0_3859_45945)">
<path d="M11.1112 31.2714H8.19927C7.49373 31.2714 6.92188 30.6995 6.92188 29.994V27.0821C6.92188 26.3765 7.49382 25.8047 8.19927 25.8047H11.1112C11.8167 25.8047 12.3886 26.3766 12.3886 27.0821V29.994C12.3886 30.6995 11.8167 31.2714 11.1112 31.2714Z" fill="#D70416" stroke="black" stroke-miterlimit="10" stroke-linecap="round" stroke-linejoin="round"/>
<path d="M21.8534 31.2714H18.9415C18.2359 31.2714 17.6641 30.6995 17.6641 29.994V27.0821C17.6641 26.3765 18.236 25.8047 18.9415 25.8047H21.8534C22.5589 25.8047 23.1308 26.3766 23.1308 27.0821V29.994C23.1309 30.6995 22.5589 31.2714 21.8534 31.2714Z" fill="#D70416" stroke="black" stroke-miterlimit="10" stroke-linecap="round" stroke-linejoin="round"/>
<path d="M11.1112 40.6093H8.19927C7.49373 40.6093 6.92188 40.0374 6.92188 39.3319V36.42C6.92188 35.7144 7.49382 35.1426 8.19927 35.1426H11.1112C11.8167 35.1426 12.3886 35.7145 12.3886 36.42V39.3319C12.3886 40.0374 11.8167 40.6093 11.1112 40.6093Z" fill="#D70416" stroke="black" stroke-miterlimit="10" stroke-linecap="round" stroke-linejoin="round"/>
<path d="M21.8534 40.6093H18.9415C18.2359 40.6093 17.6641 40.0374 17.6641 39.3319V36.42C17.6641 35.7144 18.236 35.1426 18.9415 35.1426H21.8534C22.5589 35.1426 23.1308 35.7145 23.1308 36.42V39.3319C23.1309 40.0374 22.5589 40.6093 21.8534 40.6093Z" fill="#D70416" stroke="black" stroke-miterlimit="10" stroke-linecap="round" stroke-linejoin="round"/>
<path d="M11.1112 21.6972H8.19927C7.49373 21.6972 6.92188 21.1252 6.92188 20.4198V17.5079C6.92188 16.8023 7.49382 16.2305 8.19927 16.2305H11.1112C11.8167 16.2305 12.3886 16.8024 12.3886 17.5079V20.4198C12.3886 21.1252 11.8167 21.6972 11.1112 21.6972Z" fill="#D70416" stroke="black" stroke-miterlimit="10" stroke-linecap="round" stroke-linejoin="round"/>
<path d="M21.8534 21.6972H18.9415C18.2359 21.6972 17.6641 21.1252 17.6641 20.4198V17.5079C17.6641 16.8023 18.236 16.2305 18.9415 16.2305H21.8534C22.5589 16.2305 23.1308 16.8024 23.1308 17.5079V20.4198C23.1309 21.1252 22.5589 21.6972 21.8534 21.6972Z" fill="#D70416" stroke="black" stroke-miterlimit="10" stroke-linecap="round" stroke-linejoin="round"/>
<path d="M32.5975 21.6972H29.6856C28.9801 21.6972 28.4082 21.1252 28.4082 20.4198V17.5079C28.4082 16.8023 28.9801 16.2305 29.6856 16.2305H32.5975C33.3031 16.2305 33.8749 16.8024 33.8749 17.5079V20.4198C33.8749 21.1252 33.303 21.6972 32.5975 21.6972Z" fill="#D70416" stroke="black" stroke-miterlimit="10" stroke-linecap="round" stroke-linejoin="round"/>
<path d="M35.4285 5.00391H36.2296C38.2063 5.00391 39.8087 6.60636 39.8087 8.58301V12.1549H0.988281V8.5831C0.988281 6.60636 2.59073 5.004 4.56739 5.004H5.60095" stroke="black" stroke-miterlimit="10" stroke-linecap="round" stroke-linejoin="round"/>
<path d="M10.3711 5.00391H30.6034" stroke="black" stroke-miterlimit="10" stroke-linecap="round" stroke-linejoin="round"/>
<path d="M36.4402 44.6859H4.56739C2.59073 44.6859 0.988281 43.0835 0.988281 41.1067V12.1543H39.8087V27.7081" stroke="black" stroke-miterlimit="10" stroke-linecap="round" stroke-linejoin="round"/>
<path d="M8.06283 8.42963H8.05016C6.99989 8.42963 6.14844 7.57818 6.14844 6.52791V3.21618C6.14844 2.1659 6.99989 1.31445 8.05016 1.31445H8.06283C9.1131 1.31445 9.96455 2.1659 9.96455 3.21618V6.528C9.96455 7.57818 9.1131 8.42963 8.06283 8.42963Z" stroke="black" stroke-miterlimit="10" stroke-linecap="round" stroke-linejoin="round"/>
<path d="M32.7464 8.42963H32.7338C31.6835 8.42963 30.832 7.57818 30.832 6.52791V3.21618C30.832 2.1659 31.6835 1.31445 32.7338 1.31445H32.7464C33.7967 1.31445 34.6481 2.1659 34.6481 3.21618V6.528C34.6481 7.57818 33.7967 8.42963 32.7464 8.42963Z" stroke="black" stroke-miterlimit="10" stroke-linecap="round" stroke-linejoin="round"/>
<path d="M36.1586 44.6864C41.0485 44.6864 45.0125 40.7223 45.0125 35.8324C45.0125 30.9425 41.0485 26.9785 36.1586 26.9785C31.2687 26.9785 27.3047 30.9425 27.3047 35.8324C27.3047 40.7223 31.2687 44.6864 36.1586 44.6864Z" stroke="black" stroke-miterlimit="10" stroke-linecap="round" stroke-linejoin="round"/>
<path d="M36.1582 31.4473V36.23" stroke="black" stroke-miterlimit="10" stroke-linecap="round" stroke-linejoin="round"/>
<path d="M38.55 36.2305H36.2383" stroke="black" stroke-miterlimit="10" stroke-linecap="round" stroke-linejoin="round"/>
</g>
<defs>
<clipPath id="clip0_3859_45945">
<rect width="46" height="46" fill="white"/>
</clipPath>
</defs>
</svg>
