<svg width="354" height="340" viewBox="0 0 353.811 340" fill="none" xmlns="http://www.w3.org/2000/svg">
  <path
    d="M1 170L233.64 170M232.988 169.915C232.988 169.915 233.985 172.534 258.173 142.483C267.322 131.117 272.266 122.919 274.835 117.938C276.551 114.611 279.952 112.174 283.694 112.174H352.811M232.988 170.085C232.988 170.085 232.031 169.15 258.173 197.517C266.95 207.04 272.14 215.366 274.87 220.454C276.532 223.551 279.709 225.713 283.223 225.713H352.811M144.711 169.828C144.711 169.828 166.387 150.877 188.454 88.9003C195.802 70.0718 200.205 49.4964 202.807 32.9888C205.616 15.1769 220.556 1 238.588 1H351.225M144.711 170.172C144.711 170.172 166.387 189.123 188.454 251.1C195.802 269.928 200.205 290.504 202.807 307.011C205.616 324.823 220.556 339 238.588 339H351.225"
    stroke="url(#impactForkFade)"
    stroke-width="2"
    stroke-linecap="square"
  />
  <defs>
    <linearGradient id="impactForkFade" x1="63.5046" y1="170" x2="353.005" y2="170" gradientUnits="userSpaceOnUse">
      <stop stop-color="#DC0000" />
      <stop offset="1" stop-color="white" stop-opacity="0" />
    </linearGradient>
  </defs>
</svg>
