<?xml version="1.0" encoding="UTF-8"?>
<svg id="Layer_2" data-name="Layer 2" xmlns="http://www.w3.org/2000/svg" viewBox="0 0 18 15.2">
  <defs>
    <style>
      .cls-1 {
        fill: #d50f25;
        stroke-width: 0px;
      }
    </style>
  </defs>
  <g id="Layer_1-2" data-name="Layer 1">
    <g>
      <path class="cls-1" d="m13.39,10.57c-.14-.09-.29-.13-.45-.12-.23,0-.46,0-.7.02-.36.05-.51.2-.54.59-.04-.11-.12-.1-.19-.1-1.08,0-2.16,0-3.24,0-.03,0-.07,0-.1,0-.06,0-.07-.03-.03-.08.16-.23.31-.47.47-.7.05-.07.12-.1.2-.12.46-.11.35-.02.44-.44.02-.08.03-.17.04-.26.01-.07-.01-.09-.08-.09-.09,0-.18,0-.27,0-.08,0-.11-.01-.09-.11.1-.48.12-.96.04-1.45-.02-.12.05-.12.14-.12,1.06,0,2.11,0,3.17,0,1.45,0,2.91,0,4.36,0,.08,0,.16,0,.24,0,.15-.01.22-.08.23-.24,0-.3,0-.59,0-.89,0-1.79,0-3.58,0-5.37,0-.03,0-.07,0-.1,0-.34-.15-.49-.49-.52-.05,0-.1,0-.15,0-4.16,0-8.31,0-12.47,0-.08,0-.16,0-.24,0-.3.04-.43.18-.43.49,0,.56,0,1.11,0,1.67,0,.67,0,1.34,0,2.01,0,.1-.03.16-.13.19-.18.07-.34.16-.49.26-.06.04-.1.04-.1-.05,0-.09,0-.17,0-.26,0-1.33,0-2.65,0-3.98,0-.39.24-.71.61-.79.06-.01.12-.02.19-.02C7.84,0,12.35,0,16.87,0c.49,0,.82.35.82.86,0,1.06,0,2.13,0,3.19,0,1.41,0,2.83,0,4.24,0,.11,0,.22-.02.34-.04.37-.34.65-.71.65-1.45,0-2.91,0-4.36,0-.17,0-.17,0-.14.16.02.12.05.23.08.35.02.11.09.17.2.2.22.07.45.12.68.16.1.02.12.05.08.14-.04.09-.07.18-.11.28Z"/>
      <path class="cls-1" d="m4.97,11.82c-1.45-.05-2.62-.63-3.34-1.92-.85-1.52-.46-3.59,1.19-4.67,1.5-.99,3.6-.78,4.84.51.63.66.98,1.45,1.02,2.37.09,1.75-1.17,3.31-2.9,3.63-.27.05-.53.08-.81.08Zm.03-.66c.17,0,.39-.02.6-.06,1.25-.25,2.3-1.31,2.39-2.54.04-.57-.03-1.11-.29-1.62-.73-1.44-2.32-2.09-3.84-1.55-1.63.58-2.36,2.2-1.86,3.77.39,1.22,1.59,2.02,2.99,2Z"/>
      <path class="cls-1" d="m14.2,15.16s-.07.03-.1.03c-.6,0-1.2,0-1.8,0-.14,0-.14,0-.08-.12.05-.09.07-.2.07-.3,0-.83,0-1.66,0-2.49,0-.07.02-.09.08-.1.34-.09.64-.61.43-.97-.05-.08,0-.1.07-.1.06,0,.13,0,.19,0,.42.04.82-.06,1.23-.18.58-.16,1.15-.1,1.7.15.1.05.23.06.34.07.42.02.84.08,1.26.16.26.05.41.23.41.5,0,.94,0,1.89,0,2.83,0,.34-.22.54-.56.55-.6,0-1.21-.02-1.81.01-.02,0-.05,0-.08-.01.25-.09.47-.22.67-.38.28-.23.5-.51.63-.85.03-.09.08-.14.18-.16.26-.03.45-.25.45-.5,0-.23-.2-.46-.45-.5-.09-.01-.11-.05-.13-.12-.26-.81-.81-1.31-1.64-1.47-1.14-.22-2.31.62-2.42,1.82-.09,1.03.55,1.83,1.31,2.1.01,0,.02.01.04.03Zm3.26-3.38c0-.1-.07-.17-.18-.17-.1,0-.17.06-.18.15,0,.09.08.18.17.18.09,0,.18-.08.18-.17Zm-4.35-.16c0,.05.01.1.08.1.06,0,.22-.11.24-.18,0-.02,0-.04-.01-.04-.08-.02-.15-.05-.23-.02-.06.02-.07.08-.07.14Z"/>
      <path class="cls-1" d="m12.13,12.22c-.08.06-.06.13-.06.19,0,.67,0,1.35.01,2.02,0,.13,0,.27-.02.4-.02.22-.16.35-.38.35-.26,0-.52,0-.77,0-.26,0-.44-.18-.44-.44,0-.81,0-1.62,0-2.43,0-.43.39-1,.89-1.13.3-.08.6-.1.91-.07.33.03.45.36.32.62-.1.19-.26.28-.47.28-.48,0-.96,0-1.43,0-.05,0-.1-.01-.13.04-.02.04-.03.09,0,.13.02.05.07.03.11.03.41,0,.82,0,1.23,0,.08,0,.16,0,.23,0Zm-.3-.86c-.15,0-.25.03-.34.1-.08.07-.08.15,0,.2.14.08.47.04.59-.07.08-.07.07-.15-.04-.19-.08-.03-.16-.03-.21-.05Z"/>
      <path class="cls-1" d="m12.53,1.37c-.18.21-.33.39-.48.57-.38.45-.76.9-1.14,1.36-.05.06-.1.08-.19.07-.56-.06-1.13-.13-1.7-.16-.33-.02-.65-.05-.98-.05-.04,0-.08,0-.1-.03-.02-.04.02-.07.05-.09.39-.49.78-.97,1.17-1.46.06-.07.12-.11.21-.1.17,0,.35,0,.52,0,.12,0,.15.04.15.15,0,.19,0,.38,0,.57,0,.09.03.12.12.13.23.02.39-.03.55-.22.14-.17.22-.32.2-.53-.02-.2,0-.2.2-.2.42,0,.84,0,1.26,0,.04,0,.08,0,.16,0Z"/>
      <path class="cls-1" d="m.87,14.26c-.58,0-.98-.51-.84-1.07.03-.12.09-.21.17-.3.39-.44.78-.87,1.17-1.31.11-.12.12-.12.23,0,.26.26.55.48.84.7.08.06.1.1.04.19-.29.45-.58.9-.86,1.36-.18.28-.42.44-.76.44Z"/>
      <path class="cls-1" d="m13.07,13.21c-.02-.97.79-1.83,1.85-1.83,1.02,0,1.85.8,1.86,1.84,0,1.08-.93,1.85-1.89,1.83-1.06-.03-1.84-.88-1.81-1.85Zm1.86-1.51c-.86,0-1.51.64-1.52,1.48,0,.77.68,1.44,1.52,1.43.81-.01,1.48-.64,1.48-1.42,0-.83-.65-1.49-1.48-1.49Z"/>
      <path class="cls-1" d="m10.7,6.3c0-.31,0-.63,0-.94,0-.07-.02-.14.1-.14.11,0,.12.06.12.14,0,.29,0,.58,0,.87,0,.09.02.12.12.1.09-.02.19-.03.28-.03.11,0,.14-.05.13-.15,0-.26,0-.52,0-.77,0-.07-.02-.15.1-.14.1,0,.12.05.12.14,0,.25,0,.51,0,.76,0,.11.04.15.14.14.07-.01.15-.02.22-.02.11,0,.12-.05.12-.14,0-.18,0-.37,0-.55,0-.08.02-.13.1-.16.15-.07.3-.16.45-.23.13-.07.16-.05.16.1,0,.25,0,.51,0,.76,0,.07,0,.12.1.12.15,0,.16,0,.14-.15-.08-.49-.22-.96-.29-1.45,0-.05-.03-.09,0-.14.04,0,.04.03.05.06.13.59.29,1.17.43,1.75.04.16.03.18-.13.19-.55.04-1.11.09-1.66.13-.18.01-.36.03-.54.05-.19.03-.35-.03-.52-.09-.74-.23-1.48-.47-2.22-.71-.05-.02-.1-.04-.15-.06-.05-.02-.08-.06-.07-.12,0-.06.05-.07.1-.07.08,0,.09-.03.09-.09,0-.19,0-.37,0-.56,0-.08.02-.12.11-.12.09,0,.12.04.12.12,0,.21,0,.42,0,.64,0,.06.01.1.08.12.73.22,1.45.44,2.18.66,0,0,.02,0,.03,0Z"/>
      <path class="cls-1" d="m11.43,4.74c.1,0,.21,0,.31,0,.09,0,.15-.01.13-.12-.01-.08.03-.09.09-.06.2.09.4.18.59.29.06.03.08.06,0,.1-.19.11-.38.22-.57.34-.1.06-.13.05-.13-.06,0-.1-.04-.11-.12-.11-.82.01-1.63-.07-2.44-.21-.72-.13-1.44-.31-2.09-.68-.16-.09-.3-.21-.41-.35-.16-.21-.17-.51.03-.66.08-.06.11-.15.12-.25.02-.14.09-.24.2-.33.21-.16.46-.27.7-.38,0,0,0,0,.01,0,.07,0,.15-.08.2.02.04.09-.06.12-.12.15-.19.1-.38.2-.55.33-.02.01-.03.02-.05.04-.41.36-.4.74.04,1.07.37.28.8.42,1.24.54.59.17,1.2.25,1.81.3.33.03.66.04,1,.05Z"/>
      <path class="cls-1" d="m14.61,3.23c-.19,0-.36,0-.53,0-.05,0-.09-.01-.13-.06-.41-.44-.82-.87-1.22-1.32-.06-.07-.09-.06-.15,0-.52.63-1.04,1.26-1.58,1.87-.04.05-.05.1-.06.16-.01.19.01.37,0,.56,0,.07-.02.12-.1.11-.07,0-.13-.02-.12-.12,0-.21,0-.42,0-.62,0-.08-.02-.12-.11-.12-.68-.06-1.35-.13-2.03-.2q-.16-.02-.16.15c0,.16,0,.32,0,.49,0,.04.05.13-.05.12-.07,0-.17-.01-.17-.13,0-.17,0-.34,0-.51,0-.12-.04-.16-.15-.16-.06,0-.11-.02-.17-.02-.06,0-.09-.04-.08-.1,0-.06.04-.1.11-.09.07,0,.14.02.21.02.39.03.77.05,1.16.08.51.05,1.02.1,1.53.16.09.01.14,0,.19-.07.42-.5.84-1,1.27-1.51.11-.13.23-.26.34-.4.06-.07.1-.08.17-.01.54.53,1.12,1.03,1.68,1.55.06.05.13.1.18.18Z"/>
      <path class="cls-1" d="m12.87,6.78c-.04-.06-.11-.06-.15-.09-.03-.02-.08-.03-.07-.08.01-.04.05-.05.09-.05.15,0,.29-.01.43.04.07.02.12.02.18,0,.21-.08.42-.17.62-.25.07-.03.13-.05.2,0,.04.04.09,0,.13-.02.42-.28.89-.44,1.35-.64.09-.04.17-.07.28-.12-.14-.02-.26-.04-.38-.06-.07,0-.11-.04-.1-.11,0-.08.07-.07.12-.06.26.02.53.06.79.11.05.01.12.01.12.09,0,.07-.04.11-.12.13-.17.06-.32.15-.49.22-.88.4-1.78.73-2.68,1.08-.42.16-.85.32-1.27.48-.08.03-.16.04-.24,0-.72-.24-1.44-.48-2.16-.71-.3-.1-.61-.21-.91-.3-.11-.03-.17-.1-.22-.2-.01-.03-.03-.05-.01-.08.02-.03.06-.02.09-.02.05.01.1.03.15.05.99.33,1.99.65,2.98.98.1.03.19.03.29,0,.33-.12.65-.24.99-.36Z"/>
      <path class="cls-1" d="m14.95,9.68c.17,0,.33,0,.5,0,.19,0,.33.07.44.22.22.3.36.65.52.99.02.04.02.08-.01.1-.03.03-.05-.02-.07-.03-.56-.22-1.12-.39-1.73-.31-.3.04-.59.12-.88.22-.07.03-.15.07-.21.01-.06-.06,0-.14.03-.2.14-.28.29-.55.47-.8.11-.15.25-.22.44-.22.17,0,.34,0,.51,0Zm-.02.65c.07,0,.13,0,.2,0,.07,0,.14,0,.21,0,.17,0,.22-.08.15-.24-.04-.09-.11-.12-.2-.12-.22,0-.44,0-.66-.02-.05,0-.11,0-.16.03-.12.06-.11.16-.1.27.01.11.1.08.17.08.13,0,.26,0,.38,0Z"/>
      <path class="cls-1" d="m4.92,2.09c0-.2,0-.39,0-.59,0-.08-.02-.12-.11-.12-.14,0-.16-.04-.1-.16.07-.14.15-.27.24-.39.06-.08.12-.1.19,0,.09.12.18.25.24.39.05.11.02.16-.09.16-.09,0-.12.03-.12.12,0,.4,0,.8,0,1.2,0,.09.03.13.12.12.29,0,.58,0,.87,0,.07,0,.09-.04.11-.09.06-.13.07-.13.18-.04.08.06.17.12.25.19.08.06.07.13,0,.19-.09.06-.19.12-.28.18-.07.04-.13.02-.14-.07-.02-.11-.08-.13-.18-.13-.3,0-.6,0-.9,0-.08,0-.4-.06-.47-.08-.18-.06-.36-.12-.54-.18-.07-.02-.1,0-.13.06-.03.06-.07.07-.12.03-.1-.1-.22-.19-.31-.31-.05-.07-.05-.13.05-.15.13-.03.25-.05.38-.08.08-.02.12.02.08.09-.05.1,0,.12.08.14.2.06.4.12.59.19.08.03.1,0,.1-.07,0-.2,0-.41,0-.61Z"/>
      <path class="cls-1" d="m16.56,3.47c-.01.22-.1.41-.28.56-.36.3-.78.45-1.22.58-.27.08-.55.16-.83.23-.11.03-.19.02-.27-.06-.06-.06-.19-.09-.17-.17.02-.06.14-.06.22-.08.43-.1.85-.22,1.26-.38.26-.1.5-.23.69-.44.21-.22.23-.48.04-.72-.17-.22-.4-.37-.66-.47-.06-.02-.12-.05-.17-.08-.05-.03-.05-.07-.03-.12.02-.04.05-.03.08-.02.46.14.89.35,1.19.75.09.12.13.27.14.42Z"/>
      <path class="cls-1" d="m14.65,5.37c-.13.07-.26.11-.38.14-.09.02-.1.06-.03.12.11.09.21.19.31.28.05.04.05.07,0,.1-.02.01-.04.02-.05.03q-.25.17-.48-.05c-.22-.21-.22-.21-.38.05-.05.07-.07.21-.16.2-.06,0-.06-.15-.09-.23-.13-.46-.25-.92-.38-1.38,0-.02-.01-.05-.02-.07,0-.03-.03-.06,0-.08.03-.03.06,0,.09.02.21.11.42.23.63.34.3.17.61.34.93.52Z"/>
      <path class="cls-1" d="m2.77,12.16c-.08,0-.14-.03-.2-.08-.31-.23-.61-.48-.88-.75-.06-.06-.07-.11-.01-.18.08-.1.17-.21.24-.31.04-.05.07-.05.12,0,.32.34.69.61,1.1.83.08.04.09.08.03.14-.08.09-.15.18-.24.27-.05.05-.1.08-.17.09Z"/>
      <path class="cls-1" d="m14.33,3.37c.26-.07.43.06.59.25.07.09.17.16.25.24.05.05.08.08-.02.11-.36.08-.71.16-1.07.22-.1.02-.14-.01-.14-.12,0-.18,0-.37,0-.55,0-.12.04-.15.15-.15.08,0,.16,0,.24,0Z"/>
      <path class="cls-1" d="m10.43,1.33c.37,0,.31-.05.34.3.01.21-.13.31-.24.43-.06.07-.13.14-.24.13-.08,0-.11-.03-.11-.11,0-.2,0-.41-.02-.61,0-.11.04-.15.14-.14.05,0,.11,0,.13,0Z"/>
      <path class="cls-1" d="m12.62,3.46c0,.06,0,.13,0,.19.01.12-.04.16-.16.15-.37,0-.3.03-.31-.31,0,0,0-.02,0-.02,0-.39,0-.39.39-.34.05,0,.07.03.07.08,0,.09,0,.17,0,.26h0Z"/>
      <path class="cls-1" d="m11.64,3.07c.03.08.02.15.02.21,0,.43,0,.85,0,1.28,0,.04.03.11-.04.1-.06,0-.17.02-.17-.1,0-.42,0-.84,0-1.26,0-.11.11-.15.19-.24Z"/>
      <path class="cls-1" d="m16.79,10.62c.13.01.29.01.44.07.14.05.2.16.17.3-.01.05-.04.07-.09.07-.23-.04-.47-.07-.69-.13-.11-.03-.06-.15-.07-.24,0-.08.06-.07.12-.07.03,0,.07,0,.13,0Z"/>
      <path class="cls-1" d="m12.72,3.42c0-.09,0-.17,0-.26,0-.09.04-.12.12-.12.31,0,.27-.03.27.26,0,.13,0,.26,0,.39,0,.08-.03.11-.11.11-.28.02-.28.02-.28-.27,0-.04,0-.07,0-.11Z"/>
      <path class="cls-1" d="m15.21,5.3c0,.12,0,.25,0,.37,0,.09-.05.14-.13.14-.11,0-.22,0-.34,0-.05,0-.09-.01-.09-.08,0-.07.04-.08.1-.08.23-.02.23-.02.23-.25,0-.15,0-.31,0-.46,0-.09.03-.14.13-.14.11,0,.1.07.1.14,0,.12,0,.23,0,.35h0Z"/>
      <path class="cls-1" d="m13.76,3.75c0,.17,0,.34,0,.51,0,.08-.03.12-.12.12-.09,0-.1-.05-.1-.12,0-.39,0-.78,0-1.17,0-.03-.01-.07.02-.09.04-.01.06.03.08.04.09.05.12.13.11.23,0,.16,0,.31,0,.47h0Z"/>
      <path class="cls-1" d="m12.68,10.68c.12,0,.25,0,.38.02.07,0,.14.02.18.09.02.03.04.06.02.09-.01.02-.04.03-.07.02-.37-.04-.74,0-1.11,0-.05,0-.14.03-.15-.04-.02-.08.07-.12.14-.14.19-.05.39-.06.61-.05Z"/>
      <path class="cls-1" d="m12.63,4.28c-.22,0-.43,0-.65,0-.07,0-.13,0-.13-.09,0-.1.07-.08.12-.08.44-.03.89.02,1.33,0,.06,0,.1.02.09.09,0,.07-.04.08-.1.08-.22,0-.45,0-.67,0Z"/>
      <path class="cls-1" d="m5.79,1.93q.25.01.11.23s-.03.04-.04.06q-.09.15.08.18s.07,0,.07.05c0,.05-.02.1-.07.1-.13.03-.27.03-.41,0-.07-.01-.06-.08-.03-.12.04-.08.08-.15.13-.23.04-.06.03-.1-.05-.11-.04,0-.1,0-.09-.07,0-.06.04-.09.1-.09.07,0,.14-.01.21-.02Z"/>
      <path class="cls-1" d="m10.42,5.52s0,.09,0,.14c0,.06.03.14-.03.16-.07.03-.15,0-.23-.03-.04-.01-.04-.06-.04-.1,0-.13,0-.27,0-.4,0-.06.01-.11.09-.1.07.01.18-.02.2.09.01.08,0,.16,0,.24,0,0,0,0,0,0Z"/>
      <path class="cls-1" d="m9.3,5.31s0,.09,0,.14c-.01.05.05.14-.06.15-.12,0-.23-.07-.23-.15,0-.14,0-.27,0-.41,0-.03,0-.05.03-.06.09-.05.26.05.27.16,0,.06,0,.12,0,.19h0Z"/>
      <path class="cls-1" d="m10.42,4.22s0,.08,0,.12c0,.05.03.13-.03.16-.07.03-.15,0-.22-.02-.04-.01-.04-.05-.04-.08,0-.13,0-.26,0-.39,0-.07.04-.09.1-.09.17,0,.19.02.19.19,0,.04,0,.07,0,.11Z"/>
      <path class="cls-1" d="m10.02,5.45s0,.09,0,.14c0,.05.03.12-.02.15-.06.03-.14,0-.2-.02-.05-.01-.04-.06-.04-.1,0-.13,0-.26,0-.39,0-.05,0-.11.08-.09.07.02.18-.03.19.1,0,.07,0,.14,0,.21Z"/>
      <path class="cls-1" d="m10.02,4.18s0,.07,0,.1c0,.17-.02.18-.19.15-.07-.01-.08-.05-.08-.1,0-.12,0-.23,0-.35,0-.05,0-.12.08-.1.07.02.18-.03.19.11,0,.07,0,.13,0,.2Z"/>
      <path class="cls-1" d="m9.3,4.06s0,.04,0,.06c0,.21,0,.21-.2.16-.06-.02-.09-.05-.09-.11,0-.07,0-.15,0-.22,0-.16.08-.21.24-.15.04.02.05.05.05.09,0,.06,0,.12,0,.17,0,0,0,0,0,0Z"/>
      <path class="cls-1" d="m8.9,5.23s0,.09,0,.14c0,.04.05.12-.04.11-.07,0-.19,0-.2-.11-.01-.13,0-.26,0-.4,0-.05.03-.07.07-.05.06.02.16-.01.17.09,0,.07,0,.15,0,.22,0,0,0,0,0,0Z"/>
      <path class="cls-1" d="m16.99,13.24s0-.07,0-.11c0-.04-.02-.09.02-.12.04-.03.09.02.12.04.1.06.15.15.14.26-.01.12-.08.21-.19.25-.08.03-.12,0-.1-.08.02-.08.01-.17.02-.25Z"/>
      <path class="cls-1" d="m12.12,3.01c.12-.12.22-.24.35-.34.07-.05.14-.02.14.07,0,0,0,.02,0,.02q0,.24-.23.24c-.08,0-.16,0-.26,0Z"/>
      <path class="cls-1" d="m8.9,3.99s0,.05,0,.07c0,.18-.01.18-.18.14-.05-.01-.07-.04-.07-.09,0-.09,0-.19,0-.28,0-.05,0-.1.07-.09.06.02.16-.03.18.09,0,.05,0,.11,0,.16h0Z"/>
      <path class="cls-1" d="m14.45,2.25c-.13-.03-.29-.06-.44-.11-.04-.02-.05-.05-.05-.09,0-.05.04-.06.08-.06.17.03.35.07.52.11.04,0,.04.04.03.07-.02.06-.05.09-.15.08Z"/>
      <path class="cls-1" d="m10.44,1.1c.07,0,.15,0,.22,0,.06,0,.1.01.1.08,0,.06-.04.08-.09.08-.15,0-.31,0-.46,0-.06,0-.11-.02-.11-.09,0-.07.06-.06.11-.07.07,0,.15,0,.22,0Z"/>
      <path class="cls-1" d="m12.93,2.94s-.07,0-.1,0c-.07,0-.11-.02-.1-.1,0-.04,0-.08,0-.12,0-.03-.06-.04-.02-.07.02-.02.06-.03.09-.01.11.07.22.13.32.21.06.04.02.08-.03.09-.05,0-.1,0-.15,0,0,0,0,0,0,0Z"/>
      <path class="cls-1" d="m3.02,8.01c0-.2,0-.4,0-.6,0-.16.05-.22.2-.28.52-.2,1.05-.41,1.57-.61.08-.03.15-.03.23,0,.53.21,1.06.41,1.59.62.14.05.2.15.2.3,0,.39,0,.78,0,1.17,0,.1-.18.25-.27.23-.06-.01-.04-.07-.04-.1,0-.3,0-.61,0-.91,0-.04,0-.08,0-.11.01-.11-.03-.12-.13-.08-.39.16-.78.32-1.17.47-.11.04-.14.1-.14.21,0,.21,0,.42,0,.62,0,.12-.07.12-.15.12-.08,0-.19.02-.18-.12,0-.22,0-.45,0-.67,0-.09-.02-.14-.11-.17-.39-.16-.78-.32-1.16-.48-.09-.04-.12,0-.12.08,0,.34,0,.67,0,1.01,0,.15,0,.15-.14.1-.12-.05-.19-.11-.18-.26.01-.18,0-.37,0-.55h0Zm.58-.67c.44.18.85.34,1.26.5.05.02.09,0,.13-.02.3-.11.6-.23.9-.34.1-.04.21-.07.3-.13,0-.01-.01-.02-.02-.03-.4-.16-.8-.32-1.2-.48-.04-.01-.07-.02-.11,0-.41.16-.82.33-1.26.5Z"/>
      <path class="cls-1" d="m5.24,9.53c-.6,0-1.2,0-1.79-.13-.27-.06-.53-.13-.78-.25-.2-.09-.38-.2-.5-.39-.11-.18-.09-.37.05-.53.12-.13.27-.22.44-.27.09-.02.11.03.15.09.03.07,0,.1-.06.12-.03.01-.05.03-.08.04-.2.13-.22.31-.04.47.14.12.3.2.47.26.42.16.85.22,1.29.25.41.04.82.02,1.23,0,.11,0,.24.18.21.29-.01.04-.04.03-.07.03-.17,0-.35,0-.52,0Z"/>
      <path class="cls-1" d="m4.92,10.49c-.06,0-.12-.02-.18-.05-.54-.23-1.08-.45-1.61-.7-.05-.03-.1-.05-.09-.13.02-.1.06-.15.18-.11.47.13.92.33,1.37.53.13.05.13.05.13-.09,0-.01,0-.02,0-.04,0-.19.09-.26.28-.2.03.01.05.03.05.06,0,.02,0,.03,0,.05.01.09-.04.21.03.26.06.04.16-.05.24-.08.17-.07.34-.14.5-.21.07-.03.1-.01.13.06.07.2.07.2-.12.28-.25.11-.51.23-.76.34-.05.02-.1.04-.16.04Z"/>
      <path class="cls-1" d="m6.44,9.63s-.03.03-.04.05c-.03.06-.06.13-.09.19-.01.03-.03.07-.07.06-.04,0-.05-.04-.06-.08-.07-.22-.15-.44-.22-.66-.04-.11-.07-.23-.11-.34,0-.03-.03-.07,0-.09.03-.02.06,0,.08,0,.33.16.67.31,1,.47.1.05.09.08,0,.13q-.18.1-.04.27c.09.11.06.25-.09.3-.05.02-.07-.01-.1-.04-.08-.08-.15-.15-.23-.23-.02-.02-.04-.03-.05-.04Z"/>
      <path class="cls-1" d="m7.13,9.13c-.09-.05-.19-.09-.27-.14-.05-.03,0-.06.02-.08.08-.05.17-.09.24-.15.27-.2.27-.39-.02-.57-.08-.05-.11-.09-.05-.18.04-.07.09-.07.15-.05.13.04.25.1.35.18.23.19.26.42.08.66-.12.17-.29.26-.49.33Z"/>
      <path class="cls-1" d="m6.47,6.12c-.02.06-.06.06-.09.07-.13.05-.24.12-.27.27,0,.02-.01.05-.04.06-.03,0-.05-.02-.05-.04-.04-.18-.16-.27-.33-.31,0-.05.02-.05.05-.06.14-.04.23-.14.28-.28,0-.03.02-.06.06-.06.03,0,.04.03.05.05.05.17.16.28.35.3Z"/>
      <path class="cls-1" d="m6.91,6.4c.08.16.13.32.34.34-.06.08-.15.07-.21.13-.06.06-.06.14-.11.21-.04,0-.04-.04-.05-.06-.04-.11-.1-.19-.22-.21-.02,0-.04-.01-.04-.04,0-.01.02-.03.03-.03.16-.05.26-.13.27-.33Z"/>
      <path class="cls-1" d="m14.92,14.41c-.72,0-1.29-.55-1.3-1.24,0-.68.6-1.25,1.32-1.25.68,0,1.26.59,1.27,1.27,0,.66-.59,1.22-1.29,1.22Zm-.98-1.29c0,.05,0,.11.07.12.07,0,.13,0,.15-.08,0-.02,0-.04.02-.06.1-.37.34-.58.72-.63.09-.01.14-.06.14-.14,0-.09-.08-.09-.15-.09-.48-.03-.92.38-.94.88Zm1.86-.03c-.06.05-.07.1-.09.14-.2.38-.47.67-.93.73-.04,0-.1-.03-.1.03,0,.04.06.05.1.06.32.08.6-.02.84-.23.22-.2.25-.45.18-.74Z"/>
    </g>
  </g>
</svg>