<svg width="42" height="42" viewBox="0 0 42 42" fill="none" xmlns="http://www.w3.org/2000/svg">
<g clip-path="url(#clip0_325_9097)">
<path d="M0.615234 11.3585V38.6668C0.615234 40.1679 1.83209 41.3848 3.33309 41.3848H38.6667C40.1677 41.3848 41.3846 40.1679 41.3846 38.6668V3.33318C41.3846 1.83209 40.1677 0.615238 38.6667 0.615238H3.33309C1.83209 0.615238 0.615234 1.83209 0.615234 3.33318V11.8976" stroke="#111111" stroke-miterlimit="10" stroke-linecap="round" stroke-linejoin="round"/>
<path d="M38.0104 6.4873H3.98926C3.62684 6.4873 3.33301 6.19347 3.33301 5.83105V4.42553C3.33301 4.06312 3.62684 3.76928 3.98926 3.76928H38.0104C38.3728 3.76928 38.6667 4.06312 38.6667 4.42553V5.83105C38.6667 6.19347 38.3728 6.4873 38.0104 6.4873Z" fill="#D70416" stroke="#111111" stroke-miterlimit="10" stroke-linecap="round" stroke-linejoin="round"/>
<path d="M6.42657 38.667H3.98926C3.62684 38.667 3.33301 38.3732 3.33301 38.0107V10.8614C3.33301 10.499 3.62684 10.2052 3.98926 10.2052H38.0104C38.3728 10.2052 38.6667 10.499 38.6667 10.8614V38.0107C38.6667 38.3732 38.3728 38.667 38.0104 38.667H5.88751" stroke="#111111" stroke-miterlimit="10" stroke-linecap="round" stroke-linejoin="round"/>
<path d="M23.2929 23.1543H17.8105C17.4481 23.1543 17.1543 22.8605 17.1543 22.498V15.6566C17.1543 15.2942 17.4481 15.0004 17.8105 15.0004H23.2929C23.6554 15.0004 23.9492 15.2942 23.9492 15.6566V22.498C23.9492 22.8605 23.6554 23.1543 23.2929 23.1543Z" fill="#D70416" stroke="#111111" stroke-miterlimit="10" stroke-linecap="round" stroke-linejoin="round"/>
<path d="M23.2922 15.0007H21.2305V17.0625C21.2305 17.4249 21.5243 17.7188 21.8867 17.7188H23.9484V15.657C23.9484 15.2946 23.6546 15.0007 23.2922 15.0007Z" fill="white" stroke="#111111" stroke-miterlimit="10" stroke-linecap="round" stroke-linejoin="round"/>
<path d="M15.1386 34.0264H9.65625C9.29375 34.0264 9 33.7326 9 33.3701V26.5288C9 26.1663 9.29375 25.8725 9.65625 25.8725H15.1386C15.5011 25.8725 15.7949 26.1663 15.7949 26.5288V33.3701C15.7949 33.7326 15.5011 34.0264 15.1386 34.0264Z" stroke="#111111" stroke-miterlimit="10" stroke-linecap="round" stroke-linejoin="round"/>
<path d="M15.1388 25.8729H13.0771V27.9346C13.0771 28.297 13.3709 28.5908 13.7334 28.5908H15.7951V26.5291C15.7951 26.1666 15.5013 25.8729 15.1388 25.8729Z" stroke="#111111" stroke-miterlimit="10" stroke-linecap="round" stroke-linejoin="round"/>
<path d="M31.4463 34.0264H25.9639C25.6015 34.0264 25.3076 33.7326 25.3076 33.3701V26.5288C25.3076 26.1663 25.6015 25.8725 25.9639 25.8725H31.4463C31.8087 25.8725 32.1025 26.1663 32.1025 26.5288V33.3701C32.1025 33.7326 31.8087 34.0264 31.4463 34.0264Z" stroke="#111111" stroke-miterlimit="10" stroke-linecap="round" stroke-linejoin="round"/>
<path d="M31.4465 25.8729H29.3848V27.9346C29.3848 28.297 29.6785 28.5908 30.041 28.5908H32.1027V26.5291C32.1027 26.1666 31.8089 25.8729 31.4465 25.8729Z" stroke="#111111" stroke-miterlimit="10" stroke-linecap="round" stroke-linejoin="round"/>
<path d="M15.7949 31.3086H25.3078" stroke="#111111" stroke-miterlimit="10" stroke-linecap="round" stroke-linejoin="round"/>
<path d="M19.1924 23.1549V27.9113C19.1924 28.2866 18.8882 28.5908 18.5129 28.5908H15.7949" stroke="#111111" stroke-miterlimit="10" stroke-linecap="round" stroke-linejoin="round"/>
<path d="M25.3076 28.5908H22.5897C22.2144 28.5908 21.9102 28.2866 21.9102 27.9114V23.1549" stroke="#111111" stroke-miterlimit="10" stroke-linecap="round" stroke-linejoin="round"/>
</g>
<defs>
<clipPath id="clip0_325_9097">
<rect width="42" height="42" fill="white"/>
</clipPath>
</defs>
</svg>
