<?xml version="1.0" encoding="UTF-8"?>
<svg id="Layer_2" data-name="Layer 2" xmlns="http://www.w3.org/2000/svg" viewBox="0 0 30 21.27">
  <defs>
    <style>
      .cls-1 {
        fill: #d50f25;
        stroke-width: 0px;
      }
    </style>
  </defs>
  <g id="Layer_1-2" data-name="Layer 1">
    <g>
      <path class="cls-1" d="m30,17.51c-.2.56-.62.77-1.19.77-3.48,0-6.95,0-10.43,0-.42,0-.43,0-.41.4,0,.31-.14.7.07.9.19.18.58.04.87.05.35.01.71-.02,1.06.04.22.04.4.14.48.35.12.33.15.69.13,1.04,0,.12-.08.19-.2.2-.08,0-.17,0-.25,0-3.5,0-7,0-10.49,0-.55,0-.59-.04-.58-.58.02-.79.31-1.07,1.09-1.06.47,0,.94,0,1.41.02.17,0,.26-.03.25-.22,0-.31,0-.62,0-.93,0-.16-.08-.22-.23-.22-.07,0-.15,0-.22,0-3.35,0-6.7,0-10.06,0-.64,0-1.05-.26-1.28-.84C0,11.73,0,6.01,0,.3,0,.08.02,0,.28,0,10.09,0,19.91,0,29.72,0c.25,0,.28.08.28.3,0,5.74,0,11.48,0,17.22Zm-15,.23c4.58,0,9.16,0,13.74,0,.56,0,.73-.17.73-.72,0-5.22,0-10.44,0-15.66,0-.61-.22-.83-.83-.83-9.06,0-18.12,0-27.17,0-.75,0-.95.2-.95.93,0,5.13,0,10.26,0,15.38,0,.74.15.9.89.9,4.53,0,9.06,0,13.59,0Zm-.15,3.05c1.63,0,3.27,0,4.9,0,.1,0,.22.05.29-.05.16-.24-.07-.65-.37-.65-3.23,0-6.47,0-9.7,0-.31,0-.37.1-.38.43-.01.3.17.27.37.27,1.63,0,3.27,0,4.9,0Zm.03-1.16c.76,0,1.52,0,2.28,0,.24,0,.35-.07.33-.32-.02-.26-.01-.52,0-.78,0-.18-.07-.26-.26-.26-1.57,0-3.14,0-4.71,0-.19,0-.26.08-.25.26,0,.24.01.48,0,.72-.02.28.08.39.37.38.75-.02,1.5,0,2.25,0Z"/>
      <path class="cls-1" d="m15.05,1.12c4.42,0,8.85,0,13.27,0,.5,0,.51,0,.51.5,0,4.77,0,9.55,0,14.32,0,.49-.04.53-.53.53-8.84,0-17.68,0-26.51,0-.51,0-.55-.04-.55-.55,0-4.75,0-9.51,0-14.26,0-.54,0-.54.54-.54,4.42,0,8.85,0,13.27,0Zm-.01,14.82h0c4.31,0,8.62,0,12.93,0,.29,0,.4-.06.4-.38-.01-4.49,0-8.99,0-13.48,0-.43,0-.43-.43-.43-8.61,0-17.22,0-25.83,0-.31,0-.38.1-.38.39,0,4.48,0,8.97,0,13.45,0,.45,0,.45.45.45,4.29,0,8.58,0,12.87,0Z"/>
      <path class="cls-1" d="m23.6,6.47c-.3-.2-.62-.26-.92-.37-.14-.05-.29-.07-.41-.14-.6-.33-1.13-.15-1.67.15-.12.07-.15.15-.14.28.02.23.02.46.03.68,0,.22-.1.36-.31.41-.6.16-1.18.03-1.71-.25-.21-.11-.27-.33-.27-.56,0-.71,0-1.41,0-2.12,0-.18-.03-.31-.18-.43-.37-.31-.34-.92.05-1.23.56-.46,1.91-.48,2.49-.05.31.23.36.86.1,1.25-.05.07-.11.14-.2.27.41-.15.75-.24,1.08-.45.36-.23.8-.33,1.2-.49.64-.25,1.28-.5,1.91-.78.28-.12.56-.14.85-.09.41.08.8.21,1.2.33.28.09.43.26.42.57-.01.48-.01.96,0,1.43,0,.26-.09.42-.35.52-.76.3-1.51.63-2.34.98.63.13.72.52.68,1-.03.37-.01.75,0,1.12.01.36-.13.6-.49.73-1.57.56-3.11,1.18-4.65,1.79-.24.1-.42.2-.55.45-.25.48-1.16.8-1.7.65-.11-.03-.22-.08-.32-.11-.31-.11-.56-.01-.69.28-.08.2-.21.33-.4.41-.41.19-.83.35-1.29.32-.14,0-.26.02-.38.11-.1.08-.21.15-.32.19-.44.13-.73.4-1.03.77-.46.57-1.17.6-1.84.44-.26-.06-.49-.06-.72.03-.52.19-1.04.39-1.51.66-.32.18-.62.2-.96.09-.47-.16-.94-.32-1.42-.47-.22-.07-.3-.2-.3-.41,0-.66,0-1.33,0-1.99,0-.27.11-.43.39-.52.97-.32,1.93-.66,2.89-1,.14-.05.26-.11.29-.28.02-.13.13-.22.25-.26.59-.23,1.15-.56,1.85-.29.3.12.62-.12.92-.21.17-.05.05-.25-.05-.32-.32-.24-.38-.56-.37-.94,0-.29.14-.46.38-.59.27-.15.57-.2.86-.25.2-.03.26-.13.26-.31,0-.19-.08-.29-.26-.32-.37-.08-.73-.16-1.07-.33-.68-.33-.73-1.05-.11-1.48.33-.24.72-.36,1.11-.39.97-.08,1.96-.17,2.88.28.41.2.53.42.5.87-.02.27-.15.47-.37.61-.34.22-.72.34-1.1.41-.22.04-.3.15-.29.36,0,.22.12.27.31.3.43.06.85.16,1,.66.03.11.11.12.19.08.11-.05.22-.11.33-.17.38-.19.76-.35,1.19-.18.09.03.16,0,.24-.02.84-.34,1.67-.68,2.51-1.03.08-.03.21-.05.2-.16,0-.1-.11-.14-.21-.16-.1-.02-.23-.06-.19-.19.06-.16.19-.09.28-.03.21.13.44.16.69.15.11,0,.23,0,.34.02.51.08.71.04,1.23-.26Zm-14.54,7.35c0,.24,0,.48,0,.72,0,.2.04.26.25.17.73-.31,1.46-.6,2.19-.9.2-.08.38-.2.42-.43.08-.44.08-.88-.09-1.31-.07-.17-.16-.19-.34-.12-.52.22-1.04.4-1.57.61q-.86.33-.86,1.26Zm7.27-2.87s0,0,0,0c0-.36,0-.73,0-1.09,0-.21-.06-.24-.26-.18-.62.21-1.26.23-1.91.14-.12-.02-.25-.02-.37-.01-.08,0-.17.04-.19.14-.02.09.08.11.14.15.25.15.5.29.68.54.38.52.54,1.11.52,1.75,0,.12-.06.3.18.27.34-.03.68-.09.99-.25.16-.08.23-.19.23-.37,0-.36,0-.73,0-1.09Zm6.31-2.08c0-.16,0-.31,0-.47.01-.2-.04-.27-.25-.18-.88.39-1.77.77-2.66,1.14-.17.07-.21.17-.17.33.06.28.12.57.1.86-.02.21.05.2.21.14.7-.28,1.41-.56,2.11-.84q.67-.27.67-.98Zm-14,5.07c0-.28,0-.56,0-.84,0-.15-.05-.23-.2-.27-.43-.13-.85-.27-1.28-.4-.15-.05-.24-.02-.23.17,0,.56,0,1.12,0,1.68,0,.13.06.22.18.26.44.14.87.27,1.31.4.17.05.22-.01.22-.18,0-.27,0-.54,0-.81Zm-1.24-1.78c.53.16.98.29,1.43.42.09.03.16,0,.24-.02.76-.3,1.52-.61,2.28-.91.11-.04.17-.07.07-.19-.21-.26-.64-.44-.95-.34-.99.32-1.98.67-3.07,1.04Zm7.43-5.4c.58.03,1.13-.05,1.65-.31.22-.11.37-.27.36-.53-.01-.26-.2-.37-.4-.47-.32-.16-.67-.22-1.02-.25-.69-.06-1.37-.01-2.03.21-.29.1-.61.26-.61.59,0,.34.34.47.63.56.47.15.95.22,1.43.19Zm7.66,1.09c-.41-.33-.78-.51-1.27-.3-.54.24-1.11.42-1.66.63-.65.25-.64.25-.26.81.08.11.15.15.28.1.95-.41,1.91-.81,2.9-1.24Zm-2.42-2.59c0-.2,0-.39,0-.59,0-.17-.06-.26-.24-.21-.2.06-.41.02-.62.05-.21.03-.47-.19-.61,0-.13.17-.04.44-.04.67,0,.95,0,.96.99.96.53,0,.53,0,.53-.51,0-.12,0-.25,0-.37Zm-6.97,5.04c-.11.02-.25.02-.3.12-.05.1.09.15.14.22.3.39.49.83.63,1.31.06.19-.06.53.24.56.2.02.42-.16.63-.25.12-.05.15-.14.13-.25-.06-.42-.18-.81-.45-1.14-.26-.32-.6-.5-1.01-.56Zm13.65-6.07s0-.06,0-.09c-.03-.23.11-.6-.06-.67-.24-.1-.51.16-.77.26-.1.04-.13.12-.13.23,0,.42,0,.83,0,1.25,0,.17.07.19.21.14.74-.24.74-.24.74-1.01,0-.03,0-.06,0-.09Zm-1.75.73s0-.06,0-.09q0-.78-.73-.46c-.12.05-.22.1-.22.26,0,.41,0,.83,0,1.24,0,.15.06.19.22.15.7-.2.74-.25.74-.97,0-.04,0-.08,0-.12Zm-.31,3.12c0-.19,0-.37,0-.56,0-.13-.03-.21-.18-.15-.26.1-.52.21-.78.31-.08.03-.1.09-.09.18.06.36.02.72.03,1.09,0,.18.04.24.23.17.79-.27.79-.26.79-1.04Zm-13.18,6.14c.63.06.81,0,.93-.45.25-.94.23-1.85-.42-2.65-.3-.36-.69-.6-1.18-.58-.08,0-.18.02-.19.12-.01.08.08.07.14.08.76.16,1.24.68,1.42,1.38.25.93.17,1.65-.69,2.09Zm5.17-4.36c0,.08,0,.17,0,.25,0,.14.03.29.04.43,0,.19.09.2.24.15.21-.08.42-.17.64-.25.43-.16.47-.25.23-.65-.1-.17-.25-.3-.44-.38-.52-.22-.71-.1-.7.45Zm-5.12.45c1.44.94,1.53,2.25,1.23,3.7.26-.04.33-.25.39-.44.26-.91.05-2.23-.82-2.96-.21-.17-.44-.31-.79-.3Zm3.26-.79c.53-.04,1.04-.13,1.49-.41.1-.06.24-.16.17-.29-.07-.12-.18.02-.27.05-.95.36-1.88.35-2.82-.04-.1-.04-.21-.19-.3-.07-.09.13,0,.28.12.38.09.08.21.14.33.17.42.14.85.16,1.28.21Zm8.16-4.97c-.41-.13-.72-.34-1.06-.27-.42.08-.83.26-1.24.4-.08.03-.16.08-.17.17-.02.11.09.13.16.16.2.08.41.2.63.15.55-.13,1.06-.37,1.68-.6Zm-4.21,7.02c.19-.07.29-.19.33-.34.2-.76.16-1.5-.27-2.18-.24-.37-.55-.68-1.08-.52,1,.49,1.38,1.66,1.02,3.04Zm-3.93-2.75c.46,0,.91-.06,1.33-.25.06-.03.15-.05.16-.13,0-.08-.07-.12-.14-.14-.18-.06-.35-.14-.53-.15-.13-.01-.09.19-.18.26-.04.03-.08.07-.12.09-.42.24-.94.13-1.22-.26-.05-.06-.09-.08-.15-.06-.16.04-.32.07-.48.12-.07.02-.15.04-.15.13,0,.07.08.08.14.11.43.19.88.3,1.36.29Zm5.23-2.11c.08-.26-.07-.31-.35-.28-.27.02-.54.03-.8-.03-.11-.03-.27-.12-.34,0-.07.13-.04.3.03.45.06.12.17.18.29.21.23.06.46.11.7.13.42.04.47-.02.47-.49Zm-.71-3.19c.3.03.6-.05.88-.19.06-.03.15-.05.14-.14,0-.07-.08-.1-.13-.12-.59-.24-1.18-.29-1.77-.02-.07.03-.17.06-.16.16,0,.1.1.13.18.16.27.11.55.16.86.14Zm-2.28,5.46c.7.13,1.09.54,1.23,1.18.14.63,0,1.18-.56,1.61.36.09.58-.02.67-.31.27-.81.19-1.58-.32-2.28-.24-.33-.65-.42-1.03-.21Zm4.73-1.86c.33.14.66.27.96.47.14.1.21.2.21.38,0,.4,0,.81,0,1.21,0,.09-.05.24.11.24.14,0,.22-.1.22-.25,0-.27,0-.54,0-.81,0-.8-.69-1.38-1.51-1.25Zm-.11-1.77c.27.16.53.23.79.31.85.26.69.28.71-.55,0-.21-.09-.28-.29-.2-.39.15-.77.29-1.2.44Zm-4.96,5.99c0,.37.05.4.38.28.17-.06.33-.12.49-.19.26-.11.36-.33.4-.59.02-.16-.03-.24-.21-.17-.29.12-.58.23-.87.34-.17.06-.21.18-.19.32Zm1.4-7.78c.14.42.62.66,1.24.58.42-.05.92,0,1.17-.6-.84.33-1.61.41-2.41.02Zm4.79.2c.58.28,1.13.73,1.76.12-.57-.22-1.12-.57-1.76-.12Zm1.38,2.93c-.38.12-.74.24-1.1.37-.04.01-.08.06-.05.1.13.12.22.36.44.28.33-.11.65-.27.97-.41.13-.06.12-.14.01-.2-.09-.05-.19-.09-.28-.13Zm2.14-3.51c-.62-.16-1.14-.42-1.72-.19.31.16.64.28.93.47.04.03.12,0,.18-.02.18-.07.36-.15.61-.26Zm-4.11.82c.24.1.47.21.71.29.33.11.47.33.44.68-.03.32,0,.64.04.96,0,.06.01.14.09.15.12,0,.09-.1.09-.16,0-.39,0-.79-.01-1.18,0-.07-.02-.15-.07-.2-.36-.33-.78-.54-1.29-.54Zm-7.26,3.87c0-.1,0-.16,0-.22,0-.19,0-.34-.27-.34-.28,0-.26.16-.26.35,0,.1,0,.21,0,.31-.03.25.1.32.33.31.37-.02.13-.29.19-.4Z"/>
      <path class="cls-1" d="m6.75,3.33c-.54,0-1.08,0-1.62,0-.19,0-.38-.02-.38-.26,0-.26.2-.28.4-.28,1.08,0,2.16,0,3.24,0,.19,0,.38.04.39.26,0,.23-.19.27-.37.28-.55,0-1.1,0-1.65,0h0Z"/>
      <path class="cls-1" d="m6.5,5.07c-.46,0-.91,0-1.37,0-.2,0-.4-.03-.39-.29.01-.24.21-.24.39-.25.91,0,1.83,0,2.74,0,.2,0,.42.03.41.27,0,.23-.22.27-.42.27-.46,0-.91,0-1.37,0Z"/>
      <path class="cls-1" d="m3.52,6.34c.53,0,.58.06.57.59,0,.41-.1.51-.45.5-.64,0-.69-.07-.69-.74,0-.31.09-.36.57-.35Z"/>
      <path class="cls-1" d="m3.52,2.78c.18,0,.41-.11.51.1.12.23.08.51.02.76-.02.09-.12.12-.2.12-.22,0-.44,0-.65,0-.15,0-.23-.09-.24-.24,0-.03,0-.06,0-.09-.04-.54.01-.6.57-.64Z"/>
      <path class="cls-1" d="m3.52,5.45c-.54,0-.75-.34-.53-.83.03-.07.08-.13.15-.13.26,0,.52,0,.78,0,.11,0,.16.09.16.2,0,.15.02.31,0,.46-.05.37-.35.28-.56.29Z"/>
      <path class="cls-1" d="m5.87,6.88c-.29,0-.58,0-.87,0-.16,0-.26-.07-.26-.24,0-.16.1-.22.24-.23.61,0,1.22,0,1.83,0,.14,0,.24.09.24.23,0,.15-.11.22-.25.22-.31,0-.62,0-.93,0,0,0,0,0,0,0Z"/>
      <path class="cls-1" d="m14.79,5.41c.56,0,1.06.01,1.53.21.11.05.25.08.25.24,0,.17-.13.22-.26.27-.96.36-1.93.35-2.89.02-.13-.04-.31-.09-.3-.27,0-.18.17-.24.33-.29.46-.14.93-.22,1.35-.19Z"/>
    </g>
  </g>
</svg>